<svg width="100px" height="83px" viewBox="0 0 100 83" version="1.1" xmlns="http://www.w3.org/2000/svg" xmlns:xlink="http://www.w3.org/1999/xlink">
    <title>open-book</title>
    <g id="Page-1" stroke="none" stroke-width="1" fill="none" fill-rule="evenodd">
        <g id="noun_Book_14945" fill-rule="nonzero" fill="#3a3a3a">
            <path d="M94.425,14.535 C94.248,14.535 93,14.539 92,14.595 L92,12.215 C92,9.333 90.28,7.16 87.695,7.16 C87.402,7.16 87.22,7.189 86.924,7.248 C86.715,7.289 66.441,11.436 50.525,24.166 C47.445,21.702 44,19.56 41,17.707 L41,15.195 C41,10.758 40.461,6.227 33.662,3.857 L24.975,0.823 C24.069,0.496 23.183,0.331 22.325,0.331 C18.247,0.331 15.814,4.022 15.814,7.591 C14.801,7.375 14.215,7.255 14.18,7.249 C13.886,7.191 13.208,7.162 12.915,7.162 C10.332,7.16 8,9.333 8,12.214 L8,14.594 C7,14.539 5.753,14.534 5.575,14.534 C2.502,14.534 0,17.034 0,20.107 L0,63.978 C0,66.693 3,68.959 5,69.451 L5,74.241 C5,77.315 7.793,80 10.867,80 L42.342,80 C43.229,81 45.157,83 47.395,83 L53.833,83 C56.069,83 57.998,81 58.885,80 L91.566,80 C94.64,80 97,77.315 97,74.242 L97,69.074 C99,68.205 100,66.25 100,63.979 L100,20.108 C100,17.035 97.499,14.535 94.425,14.535 Z M91.564,76 L60.619,76 C73.805,71 87,69.757 92,69.591 L92,74.241 C92,74.942 92.266,76 91.564,76 Z M9,74.242 L9,69.638 C16,69.9 28.327,71 40.607,76 L10.867,76 C10.167,76 9,74.942 9,74.242 Z M5,20.108 C5,19.408 5.223,18.838 5.924,18.838 C5.969,18.838 7,18.842 8,18.911 L8,56.087 C8,58.997 10.394,61.675 12.964,62.186 C14.29,62.449 22.415,64.132 31.772,68.443 C19.05,65.385 7.982,65.25 6.21,65.25 C5.51,65.25 5,64.68 5,63.979 L5,20.108 Z M13.061,11.469 C13.137,11.484 16,12.056 20,13.414 L20,41.364 C20,42.056 20.613,42.697 21.209,43.048 C21.807,43.4 22.668,43.411 23.272,43.077 L30.155,39.318 L37.572,48.142 C37.951,48.595 38.519,48.843 39.087,48.843 C39.31,48.843 39.515,48.804 39.733,48.725 C40.507,48.444 41,47.709 41,46.886 L41,22.704 C43,24.26 46,26.005 49,27.958 L49,28.25 L49,73.185 C34,62.062 16.488,58.373 14.418,57.963 C13.971,57.874 13,57.046 13,56.086 L13,12.214 C13,11.734 12.953,11.494 13.061,11.469 Z M22.332,4.242 C22.736,4.242 23.185,4.329 23.682,4.509 L32.329,7.551 C36.415,8.975 37,10.97 37,15.194 L37,41.503 L32.107,35.572 C31.726,35.115 31.209,34.871 30.644,34.871 C30.324,34.871 29.812,34.951 29.515,35.114 L24,38.052 L24,12.303 C24,10.604 24.205,6.627 20.068,6.627 C19.92,6.627 19.872,6.645 19.729,6.677 C19.985,5.508 20.845,4.242 22.332,4.242 Z M88,56.086 C88,57.082 87.525,57.874 87.08,57.963 C85.012,58.373 68,62.064 53,73.186 L53,28.25 L53,27.958 C68,15.54 87.719,11.508 87.967,11.461 C88.029,11.494 88,11.733 88,12.214 L88,56.086 Z M94.809,65.25 C93.036,65.25 81.948,65.383 69.227,68.441 C78.581,64.13 86.301,62.447 87.627,62.185 C90.198,61.676 92,58.997 92,56.086 L92,18.911 C93,18.843 94.532,18.839 94.577,18.839 C95.278,18.839 96,19.408 96,20.109 L96,63.98 C96,64.68 95.509,65.25 94.809,65.25 Z" id="open-book"></path>
        </g>
    </g>
</svg>